<svg viewBox="0 0 200 200" xmlns="http://www.w3.org/2000/svg">
  <path fill="#8CD867" d="M34.9,-56.7C46.4,-53.7,57.8,-46.8,65,-36.7C72.1,-26.7,74.9,-13.3,73.6,-0.8C72.2,11.8,66.7,23.5,61.4,36.8C56.1,50.1,51.1,64.9,40.9,73.8C30.7,82.7,15.3,85.6,0.7,84.4C-14,83.2,-28,77.9,-39.2,69.7C-50.5,61.4,-59.1,50.3,-67.9,38.2C-76.6,26,-85.6,13,-83,1.5C-80.4,-10,-66.2,-20.1,-54.9,-27.8C-43.6,-35.5,-35.2,-40.8,-26.5,-45.5C-17.8,-50.2,-8.9,-54.1,1.4,-56.5C11.7,-58.9,23.3,-59.7,34.9,-56.7Z" transform="translate(100 100)" />
</svg>